<svg width="159" height="122" viewBox="0 0 159 122" fill="none" xmlns="http://www.w3.org/2000/svg">
<path d="M28.1709 82.2022V39.7489C28.1709 35.5036 31.6443 32.0301 35.8897 32.0301H93.7805C98.0259 32.0301 101.499 35.5036 101.499 39.7489V82.2022C101.499 86.4475 98.0259 89.921 93.7805 89.921H35.8897C31.6443 89.921 28.1709 86.4475 28.1709 82.2022Z" fill="#FF9800"/>
<path d="M101.499 55.1865V51.3271H78.343C76.2203 51.3271 74.4836 49.5903 74.4836 47.4677C74.4836 45.345 76.2203 43.6083 78.343 43.6083H80.2727V39.7489H78.343C74.0976 39.7489 70.6242 43.2224 70.6242 47.4677C70.6242 51.713 74.0976 55.1865 78.343 55.1865H84.1321V66.7646H78.343C72.9398 66.7646 68.6945 71.01 68.6945 76.4131C68.6945 81.8163 72.9398 86.0616 78.343 86.0616H82.2024V82.2022H78.343C75.0625 82.2022 72.5539 79.6936 72.5539 76.4131C72.5539 73.1326 75.0625 70.624 78.343 70.624H101.499V66.7646H87.9914V55.1865H101.499ZM51.3272 66.7646H45.5382V55.1865H51.3272C55.5726 55.1865 59.046 51.713 59.046 47.4677C59.046 43.2224 55.5726 39.7489 51.3272 39.7489H45.5382V43.6083H51.3272C53.4499 43.6083 55.1866 45.345 55.1866 47.4677C55.1866 49.5903 53.4499 51.3271 51.3272 51.3271H28.1709V55.1865H41.6788V66.7646H28.1709V70.624H51.3272C54.6077 70.624 57.1163 73.1326 57.1163 76.4131C57.1163 79.6936 54.6077 82.2022 51.3272 82.2022H47.4678V86.0616H51.3272C56.7304 86.0616 60.9757 81.8163 60.9757 76.4131C60.9757 71.01 56.7304 66.7646 51.3272 66.7646Z" fill="#FFD54F"/>
<g clip-path="url(#clip0_360_213)">
<path d="M32.9656 96.2435H125.269C128.767 96.2435 132.121 95.1762 134.593 93.2763C137.066 91.3764 138.456 88.7995 138.456 86.1126V54.8487C138.455 52.162 137.065 49.5856 134.592 47.6861L109.354 28.2956C106.881 26.3956 103.528 25.3278 100.031 25.3272L32.9656 25.3272C25.6801 25.3272 19.7793 29.8507 19.7793 35.443V86.1177C19.781 88.8037 21.1711 91.3793 23.6438 93.2781C26.1165 95.1769 29.4695 96.2435 32.9656 96.2435Z" stroke="black" stroke-width="4" stroke-linecap="round" stroke-linejoin="round"/>
</g>
<defs>
<clipPath id="clip0_360_213">
<rect width="121.571" height="158.235" fill="white" transform="matrix(0 1 -1 0 158.235 0)"/>
</clipPath>
</defs>
</svg>
